<svg id="Layer_1" data-name="Layer 1" xmlns="http://www.w3.org/2000/svg" viewBox="0 0 378.67 119.8"><defs><style>.cls-1{font-size:96px;font-family:GillSansMT, Gill Sans MT;}.cls-1,.cls-2{fill:none;}.cls-1,.cls-2,.cls-3{stroke:#5e72e4;stroke-miterlimit:10;stroke-width:3px;}.cls-3{fill:#5e72e4;}.cls-4{fill:#fff;}</style></defs><title>Logo-blue</title><text class="cls-1" transform="translate(156.72 91.21)">Stock</text><path class="cls-2" d="M125.86,35.43l-5.34-23.89L82,20.36l4.91,23.87Z" transform="translate(-51.51 -9.74)"/><path class="cls-2" d="M84.23,78.92v0l5.62-1.69L76.27,24.45H53V31.9H69.83L81.69,79.7Z" transform="translate(-51.51 -9.74)"/><path class="cls-2" d="M162.55,84.05,117.27,94.49l3,11,44.61-10.86Z" transform="translate(-51.51 -9.74)"/><path class="cls-2" d="M103.62,102.35A10.6,10.6,0,1,1,93,91.75,10.54,10.54,0,0,1,101.49,96,10.53,10.53,0,0,1,103.62,102.35Z" transform="translate(-51.51 -9.74)"/><path class="cls-3" d="M95.84,102.35a2.83,2.83,0,1,1-2.16-2.74,2.82,2.82,0,0,1,2.16,2.74Z" transform="translate(-51.51 -9.74)"/><path class="cls-4" d="M93.94,102.33a.95.95,0,1,1-.94-.94l.22,0a.95.95,0,0,1,.72.92Z" transform="translate(-51.51 -9.74)"/><path class="cls-2" d="M114.22,102.35A21.2,21.2,0,1,1,93,81.15c.49,0,1,0,1.47,0a20.1,20.1,0,0,1,3.5.54,21.16,21.16,0,0,1,12,7.85,21.43,21.43,0,0,1,2.1,3.4A21.12,21.12,0,0,1,114.22,102.35Z" transform="translate(-51.51 -9.74)"/><path class="cls-2" d="M161.83,79.07,115.78,89.49a21.57,21.57,0,0,0-2-3.45,21.09,21.09,0,0,0-15.25-8.77L91.84,47.72l59.83-13.54Z" transform="translate(-51.51 -9.74)"/></svg>