<svg id="Layer_1" data-name="Layer 1" xmlns="http://www.w3.org/2000/svg" viewBox="0 0 310.4 120.47"><defs><style>.cls-1{font-size:108px;font-family:Consolas-Bold, Consolas;font-weight:700;letter-spacing:0.03em;}.cls-1,.cls-2{fill:#fff;}</style></defs><title>Logo-white-t</title><text class="cls-1" transform="translate(0 88.46)">St ck</text><path class="cls-2" d="M263.65,70.25l3.51-3.51-6.36-6.36-3.51,3.51a22.41,22.41,0,0,0-6.75-3V55.65h-11.3V60.9A22.32,22.32,0,0,0,232.35,64L229,60.6,222.62,67,226,70.39A22.42,22.42,0,0,0,223.13,77h-5.24V88.29h5.24a22.54,22.54,0,0,0,3,6.77l-3.51,3.5,6.36,6.36,3.51-3.5a22.58,22.58,0,0,0,6.78,3v5.24h11.25v-5.24a22.16,22.16,0,0,0,6.63-2.91l3.65,3.65,6.37-6.36-3.6-3.6a22.11,22.11,0,0,0,3.09-6.93h5.23V77.05h-5.23a22.14,22.14,0,0,0-3-6.8ZM244.89,91.91a9.26,9.26,0,1,1,9.26-9.26,9.26,9.26,0,0,1-9.26,9.26Z" transform="translate(-89.69 -22.41)"/></svg>