<svg id="Layer_1" data-name="Layer 1" xmlns="http://www.w3.org/2000/svg" viewBox="0 0 361.65 118.05"><defs><style>.cls-1{fill:none;stroke:#000;stroke-miterlimit:10;stroke-width:3px;}.cls-2{font-size:96px;font-family:MyriadPro-Regular, Myriad Pro;letter-spacing:0em;}.cls-3{letter-spacing:-0.01em;}.cls-4{letter-spacing:0em;}</style></defs><title>StockIcon</title><path class="cls-1" d="M158.28,58.48l-7.11-25.72-41.5,11.68,6.63,25.72Z" transform="translate(-66.51 -18.95)"/><path class="cls-1" d="M105.72,86.24v0l6.79-2.05L96.1,20.45H68v9H88.33l14.32,57.73Z" transform="translate(-66.51 -18.95)"/><path class="cls-1" d="M184.32,92.25l-43.3,12,3.35,10.5L187,102.38Z" transform="translate(-66.51 -18.95)"/><path class="cls-1" d="M131.37,100.92l3.08-3.08-5.59-5.59-3.07,3.08a19.65,19.65,0,0,0-5.93-2.62V88.1h-9.92v4.61a19.43,19.43,0,0,0-6,2.7l-3-3L95.35,98l3,3a19.6,19.6,0,0,0-2.55,5.8h-4.6v9.91h4.6a19.71,19.71,0,0,0,2.62,5.94l-3.08,3.08,5.59,5.58,3.08-3.08a19.54,19.54,0,0,0,6,2.63v4.6h9.87v-4.6a19.75,19.75,0,0,0,5.82-2.55l3.21,3.2,5.58-5.58-3.15-3.16a19.54,19.54,0,0,0,2.7-6.09h4.6v-9.84H134a19.36,19.36,0,0,0-2.63-6Zm-16.47,19A8.12,8.12,0,1,1,123,111.8a8.12,8.12,0,0,1-8.13,8.12Z" transform="translate(-66.51 -18.95)"/><path class="cls-1" d="M121,87.17c10-1.78,15.09,5.12,15.09,5.12l.06,0,.2.24a13.42,13.42,0,0,1,1.73,3.06l.42,1.33L187,83.57l-6.94-25.72-62.18,17L121,87.17Z" transform="translate(-66.51 -18.95)"/><text class="cls-2" transform="translate(141.72 82)">S<tspan class="cls-3" x="47.04" y="0">t</tspan><tspan class="cls-4" x="78.24" y="0">ock</tspan></text></svg>